#!OML:ASF I:\salsa\salsa 7_09\Patient 1\Session 1\dancermale.ASF
:FULLY-SPECIFIED
:DEGREES
1144
root 0.722038 16.7402 5.15408 -707.788 94.442 -709.373
lowerback -3.18955 2.50285 2.1588
upperback -2.47107 3.32563 0.0952232
thorax -0.633304 1.65453 -1.02117
lowerneck -5.81035 -4.64241 -0.904674
upperneck 10.4087 -5.83709 -2.28258
head 4.43107 -2.99573 -0.934993
rclavicle -3.78188e-014 -3.72721e-015
rhumerus -13.6344 24.2012 -108.281
rradius 77.0126
rwrist 30.8977
rhand 144.798 175.5
rfingers 7.12502
rthumb -8.33942 -34.315
lclavicle -3.78188e-014 -3.72721e-015
lhumerus -15.3128 -16.8918 107.932
lradius 75.3701
lwrist 84.6858
lhand -11.7616 50.1821
lfingers 7.12502
lthumb 14.2867 439.671
rfemur -9.73945 -1.9935 20.2339
rtibia 40.2206
rfoot -27.7958 -16.7459
rtoes -8.02175
lfemur -32.5351 3.20879 -15.9422
ltibia 32.5984
lfoot -1.72215 -0.294429
ltoes -7.67916
1145
root 0.814791 16.7299 5.07636 -710.691 94.336 -712.261
lowerback -3.05724 2.6077 2.28636
upperback -2.50711 3.46584 -0.0455357
thorax -0.723605 1.72066 -1.23938
lowerneck -5.75582 -4.7315 -0.895991
upperneck 10.4922 -5.94004 -2.41779
head 4.44467 -3.05187 -0.987656
rclavicle -1.30732e-014 2.43511e-015
rhumerus -12.9158 23.5779 -108.357
rradius 76.4998
rwrist 30.7246
rhand 144.13 175.188
rfingers 7.12502
rthumb -8.98477 -34.601
lclavicle -1.30732e-014 2.43511e-015
lhumerus -14.0879 -16.7109 107.648
lradius 74.5851
lwrist 84.7375
lhand -10.8662 50.6755
lfingers 7.12502
lthumb 15.1493 440.101
rfemur -10.4731 -2.08062 19.7343
rtibia 42.3331
rfoot -27.2392 -16.7989
rtoes -7.34526
lfemur -32.1747 3.74209 -16.7071
ltibia 32.826
lfoot -2.70331 -0.275259
ltoes -8.18319
1146
root 0.897702 16.717 4.9992 -716.457 94.1725 -718.058
lowerback -2.99305 2.66102 2.16551
upperback -2.48605 3.53897 -0.191175
thorax -0.732895 1.75722 -1.32153
lowerneck -5.91937 -4.71897 -0.92193
upperneck 10.6942 -5.91384 -2.40682
head 4.55313 -3.03966 -0.989024
rclavicle -4.72797e-014 -2.98177e-015
rhumerus -12.074 22.9066 -108.452
rradius 75.9507
rwrist 30.5431
rhand 143.758 175.443
rfingers 7.12502
rthumb -9.34364 -34.3302
lclavicle -4.72797e-014 -2.98177e-015
lhumerus -12.8151 -16.5221 107.44
lradius 73.8048
lwrist 84.8278
lhand -10.2281 51.3381
lfingers 7.12502
lthumb 15.764 440.716
rfemur -11.5809 -2.19812 18.9678
rtibia 44.941
rfoot -26.5294 -16.4103
rtoes -5.55613
lfemur -31.7932 4.36805 -17.7073
ltibia 32.7781
lfoot -3.36382 -0.21943
ltoes -6.78552
1147
root 0.9758 16.7031 4.92409 -724.472 93.9953 -726.165
lowerback -3.04906 2.7113 1.86812
upperback -2.46512 3.60962 -0.343211
thorax -0.685392 1.79567 -1.30596
lowerneck -5.82906 -4.72031 -0.999099
upperneck 10.5448 -5.90453 -2.47708
head 4.48078 -3.04141 -0.991591
rclavicle -9.4547e-015 5.46658e-015
rhumerus -11.187 22.1797 -108.477
rradius 75.3488
rwrist 30.2289
rhand 143.876 176.037
rfingers 7.12502
rthumb -9.22933 -33.7408
lclavicle -9.4547e-015 5.46658e-015
lhumerus -11.7374 -16.2444 107.346
lradius 73.1254
lwrist 84.9975
lhand -10.2785 51.9643
lfingers 7.12502
lthumb 15.7154 441.346
rfemur -12.9677 -2.41074 18.0627
rtibia 47.9164
rfoot -25.4721 -15.8099
rtoes -2.55548
lfemur -31.3907 4.7786 -18.7426
ltibia 32.4777
lfoot -3.7662 0.0200974
ltoes -3.95195
1148
root 1.03613 16.6898 4.85787 -732.273 94.1623 -734.092
lowerback -2.97972 2.65325 1.43639
upperback -2.50877 3.54322 -0.479419
thorax -0.788092 1.76614 -1.21202
lowerneck -5.70458 -4.72747 -1.13963
upperneck 10.4666 -5.91028 -2.41128
head 4.43422 -3.04574 -0.939253
rclavicle -5.96727e-014 -7.95139e-016
rhumerus -10.2124 21.6593 -108.344
rradius 74.6186
rwrist 29.5646
rhand 144.155 176.572
rfingers 7.12502
rthumb -8.96035 -33.2179
lclavicle -5.96727e-014 -7.95139e-016
lhumerus -10.9133 -15.8666 107.363
lradius 72.5476
lwrist 85.7341
lhand -9.48323 51.827
lfingers 7.12502
lthumb 16.4812 441.147
rfemur -14.6379 -2.94696 17.2179
rtibia 51.182
rfoot -23.9031 -15.4259
rtoes 1.28277
lfemur -31.2946 4.88794 -19.7519
ltibia 32.4503
lfoot -4.23722 -0.125195
ltoes -4.54658
1149
root 1.07909 16.678 4.8019 -738.923 94.692 -740.728
lowerback -2.68386 2.43956 0.833389
upperback -2.43952 3.27 -0.591187
thorax -0.917065 1.63499 -1.00987
lowerneck -5.87069 -4.65777 -1.05174
upperneck 10.4323 -5.8151 -2.50095
head 4.45017 -3.00111 -0.983938
rclavicle -2.02015e-014 4.77083e-015
rhumerus -9.0054 21.6265 -108.053
rradius 73.7828
rwrist 28.5004
rhand 144.487 177.248
rfingers 7.12502
rthumb -8.64018 -32.5555
lclavicle -2.02015e-014 4.77083e-015
lhumerus -9.97986 -15.4359 107.372
lradius 71.7629
lwrist 86.6002
lhand -9.4687 52.0293
lfingers 7.12502
lthumb 16.4952 441.348
rfemur -16.3432 -3.75388 16.3658
rtibia 54.5135
rfoot -21.954 -15.2057
rtoes 6.22501
lfemur -31.3338 4.80297 -20.8402
ltibia 32.7855
lfoot -4.80854 -0.621337
ltoes -7.94092
1150
root 1.11588 16.6685 4.74902 -742.568 95.1091 -744.347
lowerback -2.4242 2.22782 0.434514
upperback -2.3551 2.9927 -0.622992
thorax -1.00029 1.50014 -0.834995
lowerneck -6.00603 -4.56317 -1.1833
upperneck 10.4024 -5.67319 -2.49908
head 4.47265 -2.93714 -0.956329
rclavicle 3.82909e-014 -1.13307e-014
rhumerus -7.93099 21.8537 -107.786
rradius 72.924
rwrist 27.4918
rhand 144.711 178
rfingers 7.12502
rthumb -8.42397 -31.812
lclavicle 3.82909e-014 -1.13307e-014
lhumerus -9.05949 -14.7824 107.423
lradius 71.0135
lwrist 87.2608
lhand -9.31743 52.4922
lfingers 7.12502
lthumb 16.6409 441.799
rfemur -18.0703 -4.5013 15.8062
rtibia 57.6452
rfoot -19.8393 -15.095
rtoes 11.568
lfemur -31.354 4.84495 -21.7023
ltibia 33.1119
lfoot -5.34831 -0.924389
ltoes -9.65238
1151
root 1.14207 16.6588 4.698 -744.095 95.2949 -745.917
lowerback -2.18775 2.08067 0.35353
upperback -2.38458 2.79764 -0.642168
thorax -1.16899 1.4027 -0.823179
lowerneck -5.97264 -4.44085 -1.21932
upperneck 10.5348 -5.49891 -2.5035
head 4.51676 -2.85199 -0.943914
rclavicle -1.47598e-014 -4.37326e-015
rhumerus -7.203 22.1928 -107.648
rradius 72.1713
rwrist 26.7418
rhand 144.777 178.402
rfingers 7.12502
rthumb -8.35958 -31.4131
lclavicle -1.47598e-014 -4.37326e-015
lhumerus -8.38869 -14.1727 107.547
lradius 70.4231
lwrist 87.5929
lhand -9.33877 52.6035
lfingers 7.12502
lthumb 16.6203 441.912
rfemur -19.8665 -5.13019 15.5877
rtibia 60.5551
rfoot -17.972 -15.2374
rtoes 15.8056
lfemur -31.4024 5.12653 -22.288
ltibia 33.3028
lfoot -5.77284 -1.08863
ltoes -9.65173
1152
root 1.15213 16.6469 4.65388 -745.353 95.5015 -747.175
lowerback -1.83813 1.94686 0.382605
upperback -2.40225 2.61755 -0.773386
thorax -1.37838 1.30989 -0.989763
lowerneck -6.00919 -4.33112 -1.08323
upperneck 10.7228 -5.3551 -2.5313
head 4.58884 -2.77679 -0.974601
rclavicle 6.62201e-015 -1.98785e-015
rhumerus -6.58104 22.6318 -107.586
rradius 71.6123
rwrist 26.1919
rhand 144.814 178.384
rfingers 7.12502
rthumb -8.32406 -31.4315
lclavicle 6.62201e-015 -1.98785e-015
lhumerus -7.74371 -13.7615 107.574
lradius 69.8697
lwrist 87.4057
lhand -9.35357 52.2132
lfingers 7.12502
lthumb 16.6061 441.523
rfemur -21.5955 -5.83334 15.4474
rtibia 63.2407
rfoot -16.5408 -15.707
rtoes 17.9599
lfemur -31.3987 5.40904 -22.8277
ltibia 33.3665
lfoot -5.99674 -1.25262
ltoes -8.96242
1153
root 1.15846 16.6344 4.61662 -745.55 95.8137 -747.366
lowerback -1.57607 1.78967 0.477664
upperback -2.37232 2.40507 -0.934554
thorax -1.48789 1.19984 -1.218
lowerneck -6.13122 -4.23604 -0.948119
upperneck 10.9332 -5.235 -2.51579
head 4.68829 -2.71165 -0.995123
rclavicle -1.57785e-015 -3.18055e-015
rhumerus -6.09766 23.0848 -107.526
rradius 71.2119
rwrist 25.9058
rhand 144.705 178.26
rfingers 7.12502
rthumb -8.42942 -31.5523
lclavicle -1.57785e-015 -3.18055e-015
lhumerus -6.9546 -13.3217 107.56
lradius 69.1987
lwrist 86.8654
lhand -9.49522 52.0371
lfingers 7.12502
lthumb 16.4697 441.358
rfemur -23.1177 -6.65187 15.4184
rtibia 65.4797
rfoot -15.5013 -16.3922
rtoes 19.0822
lfemur -31.3014 5.49087 -23.2976
ltibia 33.2251
lfoot -6.09005 -1.41814
ltoes -8.43703
